<?xml version="1.0" encoding="UTF-8" standalone="no"?>
<svg
   xmlns:dc="http://purl.org/dc/elements/1.1/"
   xmlns:cc="http://creativecommons.org/ns#"
   xmlns:rdf="http://www.w3.org/1999/02/22-rdf-syntax-ns#"
   xmlns:svg="http://www.w3.org/2000/svg"
   xmlns="http://www.w3.org/2000/svg"
   xmlns:sodipodi="http://sodipodi.sourceforge.net/DTD/sodipodi-0.dtd"
   xmlns:inkscape="http://www.inkscape.org/namespaces/inkscape"
   version="1.1"
   viewBox="0 0 91.837985 81.685037"
   stroke-miterlimit="10"
   id="svg17"
   sodipodi:docname="logo-small.svg"
   width="91.837982"
   height="81.685036"
   style="fill:none;stroke:none;stroke-linecap:square;stroke-miterlimit:10"
   inkscape:version="0.92.4 (5da689c313, 2019-01-14)">
  <metadata
     id="metadata23">
    <rdf:RDF>
      <cc:Work
         rdf:about="">
        <dc:format>image/svg+xml</dc:format>
        <dc:type
           rdf:resource="http://purl.org/dc/dcmitype/StillImage" />
        <dc:title></dc:title>
      </cc:Work>
    </rdf:RDF>
  </metadata>
  <defs
     id="defs21">
    <clipPath
       clipPathUnits="userSpaceOnUse"
       id="clipPath4535">
      <rect
         style="fill:#000000;fill-opacity:0.53333297;stroke:#757072;stroke-width:2;stroke-miterlimit:4;stroke-dasharray:none;stroke-opacity:1"
         id="rect4537"
         width="91.837982"
         height="81.685036"
         x="4.8339843e-06"
         y="27.228348" />
    </clipPath>
  </defs>
  <sodipodi:namedview
     pagecolor="#ffffff"
     bordercolor="#666666"
     borderopacity="1"
     objecttolerance="10"
     gridtolerance="10"
     guidetolerance="10"
     inkscape:pageopacity="0"
     inkscape:pageshadow="2"
     inkscape:window-width="1920"
     inkscape:window-height="1017"
     id="namedview19"
     showgrid="false"
     fit-margin-top="0"
     fit-margin-left="0"
     fit-margin-right="0"
     fit-margin-bottom="0"
     inkscape:zoom="2.1668595"
     inkscape:cx="45.839106"
     inkscape:cy="25.382353"
     inkscape:window-x="-8"
     inkscape:window-y="-8"
     inkscape:window-maximized="1"
     inkscape:current-layer="svg17" />
  <clipPath
     id="p.0">
    <path
       d="M 0,0 H 103.67716 V 108.91338 H 0 Z"
       id="path2"
       inkscape:connector-curvature="0"
       style="clip-rule:nonzero" />
  </clipPath>
  <g
     clip-path="url(#clipPath4535)"
     id="g15"
     style="fill:#ffffff"
     transform="translate(-4.8339843e-6,-27.228348)">
    <path
       d="M 0,0 H 103.67716 V 108.91338 H 0 Z"
       id="path5"
       style="fill:#ffffff;fill-opacity:0;fill-rule:evenodd"
       inkscape:connector-curvature="0" />
    <path
       d="M 0,0 H 88.25197 V 97.98425 H 0 Z"
       id="path7"
       style="fill:#ffffff;fill-opacity:0;fill-rule:evenodd"
       inkscape:connector-curvature="0" />
    <path
       d="m 65.4375,77.066246 9.09375,2.296875 Q 71.671875,90.566246 64.234375,96.456871 56.8125,102.33187 46.078125,102.33187 34.96875,102.33187 28,97.816246 21.046875,93.284996 17.40625,84.706871 q -3.625,-8.578125 -3.625,-18.421875 0,-10.734375 4.09375,-18.71875 4.109375,-8 11.671875,-12.140625 7.578125,-4.15625 16.671875,-4.15625 10.3125,0 17.34375,5.25 7.03125,5.25 9.796875,14.765625 l -8.953125,2.109375 q -2.390625,-7.5 -6.9375,-10.921875 -4.546875,-3.421875 -11.4375,-3.421875 -7.921875,0 -13.25,3.796875 -5.3125,3.796875 -7.46875,10.203125 -2.15625,6.390625 -2.15625,13.1875 0,8.765625 2.546875,15.3125 2.5625,6.53125 7.953125,9.765625 5.390625,3.234375 11.671875,3.234375 7.640625,0 12.9375,-4.40625 5.296875,-4.40625 7.171875,-13.078125 z"
       id="path9"
       style="fill:#ffffff;fill-rule:nonzero"
       inkscape:connector-curvature="0" />
    <path
       d="m 25.401575,35.501312 h 37.448822 v 47.90551 H 25.401575 Z"
       id="path11"
       style="fill:#ffffff;fill-opacity:0;fill-rule:evenodd"
       inkscape:connector-curvature="0" />
    <path
       d="M 44.776573,82.90131 V 57.651306 h -9.4375 v -3.390625 h 22.703125 v 3.390625 H 48.557823 V 82.90131 Z"
       id="path13"
       style="fill:#ffffff;fill-rule:nonzero"
       inkscape:connector-curvature="0" />
  </g>
</svg>
