<?xml version="1.0" encoding="UTF-8" standalone="no"?>
<svg
   xmlns:dc="http://purl.org/dc/elements/1.1/"
   xmlns:cc="http://creativecommons.org/ns#"
   xmlns:rdf="http://www.w3.org/1999/02/22-rdf-syntax-ns#"
   xmlns:svg="http://www.w3.org/2000/svg"
   xmlns="http://www.w3.org/2000/svg"
   xmlns:sodipodi="http://sodipodi.sourceforge.net/DTD/sodipodi-0.dtd"
   xmlns:inkscape="http://www.inkscape.org/namespaces/inkscape"
   version="1.1"
   viewBox="0 0 223.8425 118.56816"
   stroke-miterlimit="10"
   id="svg25"
   sodipodi:docname="logo.svg"
   inkscape:version="0.92.4 (5da689c313, 2019-01-14)"
   width="223.8425"
   height="118.56816"
   style="fill:none;stroke:none;stroke-linecap:square;stroke-miterlimit:10">
  <metadata
     id="metadata31">
    <rdf:RDF>
      <cc:Work
         rdf:about="">
        <dc:format>image/svg+xml</dc:format>
        <dc:type
           rdf:resource="http://purl.org/dc/dcmitype/StillImage" />
        <dc:title></dc:title>
      </cc:Work>
    </rdf:RDF>
  </metadata>
  <defs
     id="defs29">
    <clipPath
       clipPathUnits="userSpaceOnUse"
       id="clipPath844">
      <rect
         style="fill:#000000;fill-opacity:0.53333303;stroke:#757072;stroke-width:2;stroke-miterlimit:4;stroke-dasharray:none;stroke-opacity:1"
         id="rect846"
         width="227.45729"
         height="118.56816"
         x="1.0039063e-05"
         y="3.1083985e-06" />
    </clipPath>
  </defs>
  <sodipodi:namedview
     pagecolor="#ffffff"
     bordercolor="#666666"
     borderopacity="1"
     objecttolerance="10"
     gridtolerance="10"
     guidetolerance="10"
     inkscape:pageopacity="0"
     inkscape:pageshadow="2"
     inkscape:window-width="1920"
     inkscape:window-height="1017"
     id="namedview27"
     showgrid="false"
     inkscape:zoom="1.2397932"
     inkscape:cx="-19.955578"
     inkscape:cy="24.197587"
     inkscape:window-x="-8"
     inkscape:window-y="-8"
     inkscape:window-maximized="1"
     inkscape:current-layer="svg25"
     fit-margin-top="0"
     fit-margin-left="0"
     fit-margin-right="0"
     fit-margin-bottom="0" />
  <clipPath
     id="p.0">
    <path
       d="M 0,0 H 223.84251 V 190.35432 H 0 Z"
       id="path2"
       inkscape:connector-curvature="0"
       style="clip-rule:nonzero" />
  </clipPath>
  <g
     clip-path="url(#clipPath844)"
     id="g23"
     transform="translate(-1.0039063e-5,-3.1083985e-6)">
    <path
       d="M 0,0 H 223.84251 V 190.35432 H 0 Z"
       id="path5"
       inkscape:connector-curvature="0"
       style="fill:#000000;fill-opacity:0;fill-rule:evenodd" />
    <path
       d="M 13.099737,3.0419948 H 101.35171 V 101.02624 H 13.099737 Z"
       id="path7"
       inkscape:connector-curvature="0"
       style="fill:#000000;fill-opacity:0;fill-rule:evenodd" />
    <path
       d="m 78.53724,80.10824 9.09375,2.296875 q -2.859375,11.203125 -10.296875,17.09375 -7.421875,5.874995 -18.15625,5.874995 -11.109375,0 -18.078125,-4.51562 -6.953125,-4.53125 -10.593752,-13.109375 -3.625,-8.578125 -3.625,-18.421875 0,-10.734371 4.09375,-18.718746 4.109377,-8 11.671877,-12.140625 7.578125,-4.15625 16.671875,-4.15625 10.3125,0 17.34375,5.25 7.03125,5.25 9.796875,14.765625 l -8.953125,2.109375 q -2.390625,-7.5 -6.9375,-10.921875 -4.546875,-3.421875 -11.4375,-3.421875 -7.921875,0 -13.25,3.796875 -5.3125,3.796875 -7.46875,10.203125 -2.15625,6.390625 -2.15625,13.187496 0,8.765625 2.546875,15.3125 2.5625,6.53125 7.953125,9.765625 5.390625,3.234375 11.671875,3.234375 7.640625,0 12.9375,-4.40625 5.296875,-4.40625 7.171875,-13.078125 z"
       id="path9"
       inkscape:connector-curvature="0"
       style="fill:#000000;fill-rule:nonzero" />
    <path
       d="M 38.501312,38.54331 H 75.950134 V 86.448824 H 38.501312 Z"
       id="path11"
       inkscape:connector-curvature="0"
       style="fill:#000000;fill-opacity:0;fill-rule:evenodd" />
    <path
       d="m 57.876312,85.943306 v -25.25 h -9.4375 v -3.390625 h 22.703125 v 3.390625 h -9.484375 v 25.25 z"
       id="path13"
       inkscape:connector-curvature="0"
       style="fill:#000000;fill-rule:nonzero" />
    <path
       d="M 79.8399,16.989502 H 214.04461 V 56.611549 H 79.8399 Z"
       id="path15"
       inkscape:connector-curvature="0"
       style="fill:#000000;fill-opacity:0;fill-rule:evenodd" />
    <path
       d="m 90.16802,54.0145 q 0,-5.765625 3.203125,-8.53125 2.671875,-2.3125 6.53125,-2.3125 4.265625,0 6.984375,2.8125 2.71875,2.796875 2.71875,7.734375 0,4.015625 -1.20312,6.3125 -1.20313,2.28125 -3.5,3.5625 -2.29688,1.265621 -5.000005,1.265621 -4.359375,0 -7.046875,-2.796871 -2.6875,-2.796875 -2.6875,-8.046875 z m 3.609375,0 q 0,3.984375 1.734375,5.96875 1.75,1.984375 4.390625,1.984375 2.609375,0 4.343755,-1.984375 1.75,-2 1.75,-6.078125 0,-3.859375 -1.75,-5.828125 -1.75,-1.984375 -4.343755,-1.984375 -2.640625,0 -4.390625,1.96875 -1.734375,1.96875 -1.734375,5.953125 z M 113.72661,64.389496 V 43.6395 h 3.15625 v 2.953125 q 2.29688,-3.421875 6.60938,-3.421875 1.875,0 3.4375,0.6875 1.57812,0.671875 2.35937,1.765625 0.78125,1.09375 1.09375,2.59375 0.20312,0.96875 0.20312,3.421875 v 12.749996 h -3.51562 V 51.7645 q 0,-2.140625 -0.42187,-3.203125 -0.40625,-1.0625 -1.45313,-1.703125 -1.04687,-0.640625 -2.45312,-0.640625 -2.23438,0 -3.875,1.4375 -1.625,1.421875 -1.625,5.40625 v 11.328121 z m 29.91796,-3.140621 0.51563,3.093746 q -1.48438,0.328125 -2.65625,0.328125 -1.92188,0 -2.98438,-0.609375 -1.04687,-0.609371 -1.48437,-1.593746 -0.42188,-0.984375 -0.42188,-4.15625 v -11.9375 H 134.0352 V 43.6395 h 2.57812 v -5.125 l 3.5,-2.109375 V 43.6395 h 3.53125 v 2.734375 h -3.53125 V 58.5145 q 0,1.5 0.1875,1.9375 0.1875,0.421875 0.59375,0.671875 0.42188,0.25 1.20313,0.25 0.59375,0 1.54687,-0.125 z m 3.39454,3.140621 V 43.6395 h 3.17187 v 3.15625 q 1.20313,-2.21875 2.23438,-2.921875 1.03125,-0.703125 2.25,-0.703125 1.78125,0 3.625,1.140625 L 157.10161,47.577 q -1.28125,-0.765625 -2.57813,-0.765625 -1.15625,0 -2.07812,0.703125 -0.90625,0.6875 -1.29688,1.90625 -0.59375,1.875 -0.59375,4.109375 V 64.389496 Z M 159.09379,54.0145 q 0,-5.765625 3.20313,-8.53125 2.67187,-2.3125 6.53125,-2.3125 4.26562,0 6.98437,2.8125 2.71875,2.796875 2.71875,7.734375 0,4.015625 -1.20312,6.3125 -1.20313,2.28125 -3.5,3.5625 -2.29688,1.265621 -5,1.265621 -4.35938,0 -7.04688,-2.796871 -2.6875,-2.796875 -2.6875,-8.046875 z m 3.60938,0 q 0,3.984375 1.73437,5.96875 1.75,1.984375 4.39063,1.984375 2.60937,0 4.34375,-1.984375 1.75,-2 1.75,-6.078125 0,-3.859375 -1.75,-5.828125 -1.75,-1.984375 -4.34375,-1.984375 -2.64063,0 -4.39063,1.96875 -1.73437,1.96875 -1.73437,5.953125 z m 19.87109,10.374996 V 35.748875 h 3.51563 v 28.640621 z"
       id="path17"
       inkscape:connector-curvature="0"
       style="fill:#000000;fill-rule:nonzero" />
    <path
       d="M 82.1706,49.154854 H 216.37534 V 88.776901 H 82.1706 Z"
       id="path19"
       inkscape:connector-curvature="0"
       style="fill:#000000;fill-opacity:0;fill-rule:evenodd" />
    <path
       d="M 93.811226,96.554855 V 67.91423 h 3.515625 v 10.28125 q 2.453125,-2.859375 6.203129,-2.859375 2.3125,0 4,0.921875 1.70312,0.90625 2.4375,2.515625 0.73437,1.59375 0.73437,4.640625 v 13.140625 h -3.51562 V 83.41423 q 0,-2.640625 -1.14063,-3.84375 -1.14062,-1.203125 -3.23437,-1.203125 -1.5625,0 -2.937504,0.8125 -1.375,0.8125 -1.96875,2.203125 -0.578125,1.375 -0.578125,3.828125 v 11.34375 z M 116.07295,71.961105 V 67.91423 h 3.51562 v 4.046875 z m 0,24.59375 v -20.75 h 3.51562 v 20.75 z m 8.87109,0 v -20.75 h 3.15626 v 2.953125 q 2.29687,-3.421875 6.60937,-3.421875 1.875,0 3.4375,0.6875 1.57813,0.671875 2.35938,1.765625 0.78125,1.09375 1.09375,2.59375 0.20312,0.96875 0.20312,3.421875 v 12.75 h -3.51562 v -12.625 q 0,-2.140625 -0.42188,-3.203125 -0.40625,-1.0625 -1.45312,-1.703125 -1.04688,-0.640625 -2.45313,-0.640625 -2.23437,0 -3.875,1.4375 -1.625,1.421875 -1.625,5.40625 v 11.328125 z m 21.60548,1.71875 3.40625,0.515625 q 0.21875,1.57813 1.20312,2.29688 1.29688,0.98437 3.5625,0.98437 2.45313,0 3.78125,-0.98437 1.32813,-0.96875 1.79688,-2.73438 0.26562,-1.078125 0.25,-4.515625 -2.3125,2.71875 -5.75,2.71875 -4.26563,0 -6.60938,-3.078125 -2.34375,-3.09375 -2.34375,-7.40625 0,-2.96875 1.0625,-5.484375 1.07813,-2.515625 3.10938,-3.875 2.04687,-1.375 4.8125,-1.375 3.67187,0 6.04687,2.96875 v -2.5 h 3.25 v 17.9375 q 0,4.84375 -1,6.859375 -0.98437,2.03125 -3.125,3.20313 -2.125,1.17187 -5.25,1.17187 -3.71875,0 -6,-1.67187 -2.28125,-1.67188 -2.20312,-5.031255 z m 2.90625,-12.46875 q 0,4.09375 1.60937,5.96875 1.625,1.875 4.07813,1.875 2.42187,0 4.0625,-1.859375 1.64062,-1.875 1.64062,-5.859375 0,-3.8125 -1.70312,-5.734375 -1.6875,-1.9375 -4.0625,-1.9375 -2.34375,0 -3.98438,1.90625 -1.64062,1.890625 -1.64062,5.640625 z m 18.57421,4.5625 3.46875,-0.546875 q 0.29688,2.078125 1.625,3.203125 1.34375,1.109375 3.75,1.109375 2.42188,0 3.59375,-0.984375 1.17188,-0.984375 1.17188,-2.3125 0,-1.203125 -1.03125,-1.875 -0.71875,-0.46875 -3.59375,-1.203125 -3.875,-0.96875 -5.375,-1.671875 -1.48438,-0.71875 -2.26563,-1.984375 -0.76562,-1.265625 -0.76562,-2.78125 0,-1.390625 0.64062,-2.5625 0.64063,-1.1875 1.73438,-1.96875 0.8125,-0.609375 2.21875,-1.03125 1.42187,-0.421875 3.04687,-0.421875 2.4375,0 4.28125,0.703125 1.85938,0.703125 2.73438,1.90625 0.875,1.203125 1.20312,3.21875 l -3.4375,0.46875 q -0.23437,-1.609375 -1.35937,-2.5 -1.10938,-0.90625 -3.17188,-0.90625 -2.42187,0 -3.45312,0.8125 -1.03125,0.796875 -1.03125,1.875 0,0.671875 0.42187,1.21875 0.4375,0.578125 1.35938,0.9375 0.51562,0.203125 3.09375,0.90625 3.73437,1 5.20312,1.640625 1.48438,0.625 2.3125,1.84375 0.84375,1.203125 0.84375,3 0,1.75 -1.03125,3.3125 -1.01562,1.546875 -2.95312,2.40625 -1.92188,0.84375 -4.375,0.84375 -4.03125,0 -6.15625,-1.671875 -2.125,-1.6875 -2.70313,-4.984375 z"
       id="path21"
       inkscape:connector-curvature="0"
       style="fill:#000000;fill-rule:nonzero" />
  </g>
</svg>
